<svg width="2421" height="486" viewBox="0 0 2421 486" fill="none" xmlns="http://www.w3.org/2000/svg">
<path fill-rule="evenodd" clip-rule="evenodd" d="M1078.93 331.349C1511.85 331.498 2071.97 331.173 2399.03 330.921V309.697V299.233V151.249C2399.03 149.956 2399.27 148.718 2399.7 147.575C2397.03 118.863 2389.47 111.952 2385.55 112.386H2307.39L2283.62 87.0489C2251.58 87.2248 2180.32 87.4711 2151.59 87.0489C2122.86 86.6266 2089.27 103.764 2076.06 112.386H576.673C502.034 113.878 427.744 131.279 358.551 156.947C325.172 203.153 192.22 257.343 129.916 278.662C50.7754 334.508 1.00009 386.63 1 402.182C0.99981 436.493 64.3768 445.29 90.2557 449.161V469.22C111.381 477.666 187.786 482.592 223.347 484H2385.55C2389.14 477.014 2395.42 450.379 2398.59 419.6C2399.72 408.668 2400.45 397.214 2400.53 385.931C2400.55 383.406 2400.57 380.751 2400.6 377.979C2399.6 376.381 2399.03 374.496 2399.03 372.478V348.868H1078.93V382.123C1078.93 387.953 1074.2 392.68 1068.37 392.68H968.024C962.191 392.68 957.462 387.953 957.462 382.123V348.868V331.292V159.366C957.462 153.535 962.191 148.808 968.024 148.808H1068.37C1074.2 148.808 1078.93 153.535 1078.93 159.366V331.349ZM2207.04 222.709H1135.97V316.668H2207.04V222.709ZM898.31 222.709H439.356C333.728 222.709 181.624 286.052 181.624 286.052L206.446 331.448C206.446 331.448 330.559 315.612 439.356 316.668C618.58 318.407 898.31 316.668 898.31 316.668V222.709Z" fill="black"/>
<path d="M1135.97 222.709H2207.04V316.668H1135.97V222.709Z" fill="black"/>
<path d="M1052.53 249.102V281.829C1052.53 300.487 1037.39 315.612 1018.73 315.612C1000.06 315.612 984.925 300.487 984.925 281.829V249.102C984.925 230.444 1000.06 215.319 1018.73 215.319C1037.39 215.319 1052.53 230.444 1052.53 249.102Z" fill="black"/>
<path fill-rule="evenodd" clip-rule="evenodd" d="M1068.37 148.808H968.024C962.191 148.808 957.462 153.535 957.462 159.366V331.292C996.551 331.316 1037.15 331.334 1078.93 331.349V159.366C1078.93 153.535 1074.2 148.808 1068.37 148.808ZM1052.53 281.829V249.102C1052.53 230.444 1037.39 215.319 1018.73 215.319C1000.06 215.319 984.925 230.444 984.925 249.102V281.829C984.925 300.487 1000.06 315.612 1018.73 315.612C1037.39 315.612 1052.53 300.487 1052.53 281.829Z" fill="black"/>
<path d="M957.462 331.292V348.868H1078.93V331.349C1037.15 331.334 996.551 331.316 957.462 331.292Z" fill="black"/>
<path d="M968.024 392.68H1068.37C1074.2 392.68 1078.93 387.953 1078.93 382.123V348.868H957.462V382.123C957.462 387.953 962.191 392.68 968.024 392.68Z" fill="black"/>
<path d="M2399.03 330.921C2071.97 331.173 1511.85 331.498 1078.93 331.349V348.868H2399.03V330.921Z" fill="black"/>
<path d="M439.356 222.709H898.31V316.668C898.31 316.668 618.58 318.407 439.356 316.668C330.559 315.612 206.446 331.448 206.446 331.448L181.624 286.052C181.624 286.052 333.728 222.709 439.356 222.709Z" fill="black"/>
<path d="M129.916 278.662C191.537 235.18 270.959 189.44 358.551 156.947C325.172 203.153 192.22 257.343 129.916 278.662Z" fill="black"/>
<path d="M2420 372.478V151.249C2420 145.47 2415.31 140.786 2409.52 140.786C2405.02 140.786 2401.19 143.609 2399.7 147.575C2400.09 151.8 2400.38 156.498 2400.53 161.714C2401.68 200.596 2401.09 317.307 2400.6 377.979C2402.44 380.958 2405.75 382.942 2409.52 382.942C2415.31 382.942 2420 378.257 2420 372.478Z" fill="black"/>
<path d="M64.3768 407.46L2398.59 419.6M2398.76 419.601L2398.59 419.6M153.104 315.612C131.451 328.457 85.5024 357.419 74.9396 370.51C88.0542 364.676 124.737 356.369 193.127 348.868C283.559 338.949 429.43 330.439 649.556 330.92C731.735 331.1 837.492 331.219 957.462 331.292M2399.81 330.92C2399.55 330.92 2399.29 330.921 2399.03 330.921M2399.81 348.868H2399.03M2076.06 112.386H576.673C502.034 113.878 427.744 131.279 358.551 156.947M2076.06 112.386C2089.27 103.764 2122.86 86.6266 2151.59 87.0489C2180.32 87.4711 2251.58 87.2248 2283.62 87.0489L2307.39 112.386H2385.55C2389.47 111.952 2397.03 118.863 2399.7 147.575M2076.06 112.386H2034.87M2399.03 151.249V299.233V309.697V330.921M2399.03 151.249C2399.03 149.956 2399.27 148.718 2399.7 147.575M2399.03 151.249V330.921M129.916 278.662C50.7754 334.508 1.00009 386.63 1 402.182C0.99981 436.493 64.3768 445.29 90.2557 449.161V469.22C111.381 477.666 187.786 482.592 223.347 484H2385.55C2389.14 477.014 2395.42 450.379 2398.59 419.6M129.916 278.662C191.537 235.18 270.959 189.44 358.551 156.947M129.916 278.662C192.22 257.343 325.172 203.153 358.551 156.947M439.356 222.709C618.589 222.709 898.31 222.709 898.31 222.709M439.356 222.709C333.728 222.709 181.624 286.052 181.624 286.052L206.446 331.448C206.446 331.448 330.559 315.612 439.356 316.668C618.58 318.407 898.31 316.668 898.31 316.668V222.709M439.356 222.709H898.31M649.556 348.868H957.462M1078.93 331.349C1511.85 331.498 2071.97 331.173 2399.03 330.921M1078.93 331.349V159.366C1078.93 153.535 1074.2 148.808 1068.37 148.808H968.024C962.191 148.808 957.462 153.535 957.462 159.366V331.292M1078.93 331.349V348.868M1078.93 331.349C1037.15 331.334 996.551 331.316 957.462 331.292M2399.03 330.921V348.868M2399.7 147.575C2401.19 143.609 2405.02 140.786 2409.52 140.786C2415.31 140.786 2420 145.47 2420 151.249V372.478C2420 378.257 2415.31 382.942 2409.52 382.942C2405.75 382.942 2402.44 380.958 2400.6 377.979M2399.7 147.575C2400.09 151.8 2400.38 156.498 2400.53 161.714C2401.68 200.596 2401.09 317.307 2400.6 377.979M2398.59 419.6C2399.72 408.668 2400.45 397.214 2400.53 385.931C2400.55 383.406 2400.57 380.751 2400.6 377.979M2400.6 377.979C2399.6 376.381 2399.03 374.496 2399.03 372.478V348.868M2399.03 348.868H1078.93M1078.93 348.868V382.123C1078.93 387.953 1074.2 392.68 1068.37 392.68H968.024C962.191 392.68 957.462 387.953 957.462 382.123V348.868M1078.93 348.868H957.462M957.462 348.868V331.292M2034.87 112.386H1994.2L1898.61 64.8711M2034.87 112.386L1898.61 64.8711M1898.61 64.8711L2067.22 1H2102.08M1135.97 222.709H2207.04V316.668H1135.97V222.709ZM1018.73 315.612C1000.06 315.612 984.925 300.487 984.925 281.829V249.102C984.925 230.444 1000.06 215.319 1018.73 215.319C1037.39 215.319 1052.53 230.444 1052.53 249.102V281.829C1052.53 300.487 1037.39 315.612 1018.73 315.612Z" stroke="white" stroke-linecap="round"/>
</svg>
