<svg width="1949" height="460" viewBox="0 0 1949 460" fill="none" xmlns="http://www.w3.org/2000/svg">
<path d="M504.5 409C504.5 415.535 503.246 421.778 500.966 427.5C493.611 445.956 475.579 459 454.5 459C433.421 459 415.389 445.956 408.034 427.5C405.754 421.778 404.5 415.535 404.5 409C404.5 381.386 426.886 359 454.5 359C482.114 359 504.5 381.386 504.5 409Z" fill="black"/>
<path d="M684.5 409C684.5 415.535 683.246 421.778 680.966 427.5C673.611 445.956 655.579 459 634.5 459C613.421 459 595.389 445.956 588.034 427.5C585.754 421.778 584.5 415.535 584.5 409C584.5 381.386 606.886 359 634.5 359C662.114 359 684.5 381.386 684.5 409Z" fill="black"/>
<path d="M202.5 167C202.5 161.477 206.977 157 212.5 157H246.5C252.023 157 256.5 161.477 256.5 167V322V335C256.5 340.523 252.023 345 246.5 345H212.5C206.977 345 202.5 340.523 202.5 335V322V167Z" fill="black"/>
<path d="M135.5 162C135.5 159.239 137.739 157 140.5 157H170.5C173.261 157 175.5 159.239 175.5 162V207C175.5 209.761 173.261 212 170.5 212H140.5C137.739 212 135.5 209.761 135.5 207V162Z" fill="black"/>
<path d="M420 49H381.5H231H420Z" fill="black"/>
<path d="M1625 409C1625 436.614 1647.39 459 1675 459C1702.61 459 1725 436.614 1725 409C1725 381.386 1702.61 359 1675 359C1647.39 359 1625 381.386 1625 409Z" fill="black"/>
<path d="M1445 409C1445 436.614 1467.39 459 1495 459C1522.61 459 1545 436.614 1545 409C1545 381.386 1522.61 359 1495 359C1467.39 359 1445 381.386 1445 409Z" fill="black"/>
<path d="M1265 409C1265 436.614 1287.39 459 1315 459C1342.61 459 1365 436.614 1365 409C1365 381.386 1342.61 359 1315 359C1287.39 359 1265 381.386 1265 409Z" fill="black"/>
<path d="M1846.5 423C1823.3 376.6 1732.83 356.333 1690.5 352H1231V427.5H1721.5L1846.5 423Z" fill="black"/>
<path d="M1747 167C1747 161.477 1742.52 157 1737 157H1703C1697.48 157 1693 161.477 1693 167V322V335C1693 340.523 1697.48 345 1703 345H1737C1742.52 345 1747 340.523 1747 335V322V167Z" fill="black"/>
<path d="M1814 162C1814 159.239 1811.76 157 1809 157H1779C1776.24 157 1774 159.239 1774 162V207C1774 209.761 1776.24 212 1779 212H1809C1811.76 212 1814 209.761 1814 207V162Z" fill="black"/>
<path fill-rule="evenodd" clip-rule="evenodd" d="M1 352C136 352 103.2 321.2 160 322H192.5H202.5V167C202.5 161.477 206.977 157 212.5 157H246.5C252.023 157 256.5 161.477 256.5 167V322H266.5H974.5H975H1683H1693V167C1693 161.477 1697.48 157 1703 157H1737C1742.52 157 1747 161.477 1747 167V322H1757H1789.5C1846.3 321.2 1813.5 352 1948.5 352C1930.8 263 1853.4 132.8 1781 132C1708.63 131.2 1213.51 131.666 974.75 132C735.988 131.666 240.875 131.2 168.5 132C96.1 132.8 18.6998 263 1 352ZM170.5 157H140.5C137.739 157 135.5 159.239 135.5 162V207C135.5 209.761 137.739 212 140.5 212H170.5C173.261 212 175.5 209.761 175.5 207V162C175.5 159.239 173.261 157 170.5 157ZM1779 157H1809C1811.76 157 1814 159.239 1814 162V207C1814 209.761 1811.76 212 1809 212H1779C1776.24 212 1774 209.761 1774 207V162C1774 159.239 1776.24 157 1779 157Z" fill="black"/>
<path d="M1 352V444L103 423C126.2 376.6 216.667 356.333 259 352H718.5H777.5V444H974.5H975H1172V352H1231H1690.5C1732.83 356.333 1823.3 376.6 1846.5 423L1948.5 444V352C1813.5 352 1846.3 321.2 1789.5 322H1757H1747V335C1747 340.523 1742.52 345 1737 345H1703C1697.48 345 1693 340.523 1693 335V322H1683H975H974.5H266.5H256.5V335C256.5 340.523 252.023 345 246.5 345H212.5C206.977 345 202.5 340.523 202.5 335V322H192.5H160C103.2 321.2 136 352 1 352Z" fill="black"/>
<path fill-rule="evenodd" clip-rule="evenodd" d="M274.5 459C295.579 459 313.611 445.956 320.966 427.5H228.034C235.389 445.956 253.421 459 274.5 459ZM504.5 409C504.5 415.535 503.246 421.778 500.966 427.5H408.034C405.754 421.778 404.5 415.535 404.5 409C404.5 381.386 426.886 359 454.5 359C482.114 359 504.5 381.386 504.5 409ZM684.5 409C684.5 415.535 683.246 421.778 680.966 427.5H588.034C585.754 421.778 584.5 415.535 584.5 409C584.5 381.386 606.886 359 634.5 359C662.114 359 684.5 381.386 684.5 409Z" fill="black"/>
<path d="M274.5 359C246.886 359 224.5 381.386 224.5 409C224.5 415.535 225.754 421.778 228.034 427.5H320.966C323.246 421.778 324.5 415.535 324.5 409C324.5 381.386 302.114 359 274.5 359Z" fill="black"/>
<path d="M224.5 409C224.5 381.386 246.886 359 274.5 359C302.114 359 324.5 381.386 324.5 409C324.5 415.535 323.246 421.778 320.966 427.5H408.034C405.754 421.778 404.5 415.535 404.5 409C404.5 381.386 426.886 359 454.5 359C482.114 359 504.5 381.386 504.5 409C504.5 415.535 503.246 421.778 500.966 427.5H588.034C585.754 421.778 584.5 415.535 584.5 409C584.5 381.386 606.886 359 634.5 359C662.114 359 684.5 381.386 684.5 409C684.5 415.535 683.246 421.778 680.966 427.5H718.5V352H259C216.667 356.333 126.2 376.6 103 423L228 427.5H228.034C225.754 421.778 224.5 415.535 224.5 409Z" fill="black"/>
<path d="M231 85.5C89.4 85.5 18.6667 263.167 1 352C18.6998 263 96.1 132.8 168.5 132C240.875 131.2 735.988 131.666 974.75 132C1213.51 131.666 1708.63 131.2 1781 132C1853.4 132.8 1930.8 263 1948.5 352C1930.83 263.167 1860.1 85.5 1718.5 85.5H975H974.5H231Z" fill="black"/>
<path d="M211.5 274V250M211.5 218V194M192.5 345V322M192.5 160V322M266.5 345V322M266.5 160V322M1 352V444L103 423M1 352C18.6667 263.167 89.4 85.5 231 85.5M1 352C136 352 103.2 321.2 160 322H192.5M1 352C18.6998 263 96.1 132.8 168.5 132C240.875 131.2 735.988 131.666 974.75 132M231 85.5H975M231 85.5H974.5M975 85.5H1718.5M975 85.5H974.5M975 444H777.5M975 444H974.5M975 444H1172M777.5 444V352H718.5M777.5 444H974.5M103 423C126.2 376.6 216.667 356.333 259 352H718.5M103 423L228 427.5H228.034M718.5 352V427.5H680.966M975 322H974.5M975 322H1683M975 322H266.5M975 132C974.917 132 974.833 132 974.75 132M381.5 85V49M381.5 49H420M381.5 49H231M459 85V49H420M420 49H231M231 49L424 35H457M1738 274V250M1738 218V194M1757 345V322M1757 160V322M1683 345V322M1683 160V322M1948.5 352V444L1846.5 423M1948.5 352C1930.83 263.167 1860.1 85.5 1718.5 85.5M1948.5 352C1813.5 352 1846.3 321.2 1789.5 322H1757M1948.5 352C1930.8 263 1853.4 132.8 1781 132C1708.63 131.2 1213.51 131.666 974.75 132M1718.5 85.5H974.5M974.5 444H1172M1172 444V352H1231M1846.5 423C1823.3 376.6 1732.83 356.333 1690.5 352H1231M1846.5 423L1721.5 427.5H1231V352M974.5 322H266.5M974.5 322H1683M974.5 132C974.583 132 974.667 132 974.75 132M1568 85V49M1568 49H1529.5M1568 49L1683.5 15M1490.5 85V49H1529.5M1529.5 49L1683.5 15M1683.5 15L1490.5 1H1457.5M192.5 322H202.5M202.5 322V167C202.5 161.477 206.977 157 212.5 157H246.5C252.023 157 256.5 161.477 256.5 167V322M202.5 322V335C202.5 340.523 206.977 345 212.5 345H246.5C252.023 345 256.5 340.523 256.5 335V322M202.5 322H256.5M256.5 322H266.5M1683 322H1693M1693 322V167C1693 161.477 1697.48 157 1703 157H1737C1742.52 157 1747 161.477 1747 167V322M1693 322V335C1693 340.523 1697.48 345 1703 345H1737C1742.52 345 1747 340.523 1747 335V322M1693 322H1747M1747 322H1757M228.034 427.5H320.966M228.034 427.5C225.754 421.778 224.5 415.535 224.5 409C224.5 381.386 246.886 359 274.5 359C302.114 359 324.5 381.386 324.5 409C324.5 415.535 323.246 421.778 320.966 427.5M228.034 427.5C235.389 445.956 253.421 459 274.5 459C295.579 459 313.611 445.956 320.966 427.5M320.966 427.5H408.034M408.034 427.5H500.966M408.034 427.5C405.754 421.778 404.5 415.535 404.5 409C404.5 381.386 426.886 359 454.5 359C482.114 359 504.5 381.386 504.5 409C504.5 415.535 503.246 421.778 500.966 427.5M408.034 427.5C415.389 445.956 433.421 459 454.5 459C475.579 459 493.611 445.956 500.966 427.5M500.966 427.5H588.034M588.034 427.5H680.966M588.034 427.5C585.754 421.778 584.5 415.535 584.5 409C584.5 381.386 606.886 359 634.5 359C662.114 359 684.5 381.386 684.5 409C684.5 415.535 683.246 421.778 680.966 427.5M588.034 427.5C595.389 445.956 613.421 459 634.5 459C655.579 459 673.611 445.956 680.966 427.5M140.5 212H170.5C173.261 212 175.5 209.761 175.5 207V162C175.5 159.239 173.261 157 170.5 157H140.5C137.739 157 135.5 159.239 135.5 162V207C135.5 209.761 137.739 212 140.5 212ZM1625 409C1625 436.614 1647.39 459 1675 459C1702.61 459 1725 436.614 1725 409C1725 381.386 1702.61 359 1675 359C1647.39 359 1625 381.386 1625 409ZM1445 409C1445 436.614 1467.39 459 1495 459C1522.61 459 1545 436.614 1545 409C1545 381.386 1522.61 359 1495 359C1467.39 359 1445 381.386 1445 409ZM1265 409C1265 436.614 1287.39 459 1315 459C1342.61 459 1365 436.614 1365 409C1365 381.386 1342.61 359 1315 359C1287.39 359 1265 381.386 1265 409ZM1809 212H1779C1776.24 212 1774 209.761 1774 207V162C1774 159.239 1776.24 157 1779 157H1809C1811.76 157 1814 159.239 1814 162V207C1814 209.761 1811.76 212 1809 212Z" stroke="white"/>
</svg>
