<svg width="2082" height="402" viewBox="0 0 2082 402" fill="none" xmlns="http://www.w3.org/2000/svg">
<path d="M306.807 97.5815C286.457 107.677 244.678 128.081 240.369 128.931L300.523 168.782L335.987 146.997L306.807 97.5815Z" fill="black"/>
<path d="M2081 66.0511V288.742C2081 294.559 2077.01 299.274 2072.09 299.274C2068.89 299.274 2066.08 297.277 2064.51 294.279C2064.49 297.069 2064.47 299.742 2064.45 302.284C2064.38 313.641 2063.76 325.171 2062.8 336.175C2060.11 367.157 2054.77 393.968 2051.72 401H231.39C180.064 400.639 76.3361 398.537 72.0265 393.011C67.717 387.485 74.72 369.1 78.7602 360.599C56.7636 359.359 10.8155 355.874 4.68998 349.44C-27.1821 315.965 151.036 80.0659 399.283 26.9315H1254.01C1257.3 19.309 1275.74 3.63914 1323.14 1.93883C1370.55 0.238518 1466.79 1.23037 1508.99 1.93883C1551.19 2.64729 1566 26.9315 1566 26.9315H2051.72C2055.05 26.4942 2061.47 33.4506 2063.74 62.3527C2065.01 58.3601 2068.27 55.5184 2072.09 55.5184C2077.01 55.5184 2081 60.234 2081 66.0511Z" fill="black"/>
<path d="M341.373 252.204H2064.29V271.332H341.373C254.351 273.138 206.608 278.023 122.754 291.523C190.907 269.516 223.276 254.922 341.373 252.204Z" fill="black"/>
<path d="M526.324 108.74C526.324 102.871 530.344 98.1128 535.303 98.1128H584.683C589.641 98.1128 593.661 102.871 593.661 108.74V291.523C593.661 297.392 589.641 302.15 584.683 302.15H535.303C530.344 302.15 526.324 297.392 526.324 291.523V108.74Z" fill="black"/>
<path d="M2.44624 344.127C98.9619 338.813 310.399 333.5 383.122 333.5C456.114 333.499 1532.78 339.876 2062.05 340.407M398.04 26.3809C392.6 27.398 381.977 38.3827 383.008 80.2873C384.039 122.192 382.149 268.281 383.008 334.562M44.5443 254.984L86.8414 248.484L137.568 216.603L100.209 192.395M2063.18 246.91V264.975M2063.18 246.91L2063.84 246.909M2063.18 246.91V66.0511C2063.18 64.7496 2063.38 63.5034 2063.74 62.3527M2063.74 62.3527C2061.47 33.4506 2055.05 26.4942 2051.72 26.9315H1566C1566 26.9315 1551.19 2.64729 1508.99 1.93883C1466.79 1.23037 1370.55 0.238518 1323.14 1.93883C1275.74 3.63914 1257.3 19.309 1254.01 26.9315H399.283C151.036 80.0659 -27.1821 315.965 4.68998 349.44C10.8155 355.874 56.7636 359.359 78.7602 360.599C74.72 369.1 67.717 387.485 72.0265 393.011C76.3361 398.537 180.064 400.639 231.39 401H2051.72C2054.77 393.968 2060.11 367.157 2062.8 336.175M2063.74 62.3527C2065.01 58.3601 2068.27 55.5184 2072.09 55.5184C2077.01 55.5184 2081 60.234 2081 66.0511V288.742C2081 294.559 2077.01 299.274 2072.09 299.274C2068.89 299.274 2066.08 297.277 2064.51 294.279M2063.74 62.3527C2064.08 66.6061 2064.32 71.3348 2064.45 76.5851C2065.42 115.724 2064.92 233.206 2064.51 294.279M2062.8 336.175C2063.76 325.171 2064.38 313.641 2064.45 302.284C2064.47 299.742 2064.49 297.069 2064.51 294.279M2062.8 336.175L2062.94 336.175M2064.51 294.279C2063.66 292.67 2063.18 290.773 2063.18 288.742V264.975M2063.18 264.975H2063.84M383.316 133.182H1968.22V232.012H382.919M240.369 128.931C244.678 128.081 286.457 107.677 306.807 97.5815L335.987 146.997L300.523 168.782L240.369 128.931ZM341.373 252.204H2064.29V271.332H341.373C254.351 273.138 206.608 278.023 122.754 291.523C190.907 269.516 223.276 254.922 341.373 252.204ZM535.303 302.15H584.683C589.641 302.15 593.661 297.392 593.661 291.523V108.74C593.661 102.871 589.641 98.1128 584.683 98.1128H535.303C530.344 98.1128 526.324 102.871 526.324 108.74V291.523C526.324 297.392 530.344 302.15 535.303 302.15Z" stroke="white" stroke-linecap="round"/>
</svg>
