<svg width="3026" height="402" viewBox="0 0 3026 402" fill="none" xmlns="http://www.w3.org/2000/svg">
<path fill-rule="evenodd" clip-rule="evenodd" d="M81.7746 224.54C24.0661 231.242 3.92992 300.852 1.02666 335.14C3.24178 321.856 142.917 311.904 213.033 308.568H3003.12C3003.68 243.586 3004.47 102.193 3003.12 56.4814C3001.78 10.7694 2991.34 0.46179 2986.3 1.02199L2148.26 5.22352L1310.22 9.42499C1121.75 13.9066 745.473 25.2225 748.165 34.6338C751.531 46.3979 154.135 216.137 81.7746 224.54ZM953.468 254.79C949.75 254.79 946.736 251.78 946.736 248.067V64.8828C946.736 61.1702 949.75 58.1605 953.468 58.1605H1005.63C1009.35 58.1605 1012.37 61.1702 1012.37 64.8828V248.067C1012.37 251.78 1009.35 254.79 1005.63 254.79H953.468ZM1067.9 254.79C1058.6 254.79 1051.07 247.265 1051.07 237.984V63.2023C1051.07 53.9206 1058.6 46.3963 1067.9 46.3963H1120.07C1129.36 46.3963 1136.89 53.9206 1136.89 63.2023V237.984C1136.89 247.265 1129.36 254.79 1120.07 254.79H1067.9ZM1153.72 78.3275V46.3963H1180.65V78.3275H1153.72ZM1253.01 58.1605V46.3963H1301.81V58.1605H1253.01ZM2765.85 237.984V63.2023C2765.85 53.9206 2773.38 46.3963 2782.68 46.3963H2834.84C2844.14 46.3963 2851.67 53.9206 2851.67 63.2023V237.984C2851.67 247.265 2844.14 254.79 2834.84 254.79H2782.68C2773.38 254.79 2765.85 247.265 2765.85 237.984Z" fill="black"/>
<path d="M3003.12 308.568H213.033C142.917 311.904 3.24178 321.856 1.02666 335.14L1 335.459C17.2671 357.306 65.2831 401.001 127.21 401.001H2986.3C2991.76 390.357 3002.78 356.969 3003.12 308.568Z" fill="black"/>
<path fill-rule="evenodd" clip-rule="evenodd" d="M953.468 58.1605C949.75 58.1605 946.736 61.1702 946.736 64.8828V248.067C946.736 251.78 949.75 254.79 953.468 254.79H1005.63C1009.35 254.79 1012.37 251.78 1012.37 248.067V64.8828C1012.37 61.1702 1009.35 58.1605 1005.63 58.1605H953.468ZM961.882 148.912V78.3275H993.855V148.912H961.882Z" fill="black"/>
<path d="M961.882 78.3275V148.912H993.855V78.3275H961.882Z" fill="black"/>
<path d="M1074.63 58.1605V125.384H1118.38V58.1605H1074.63Z" fill="black"/>
<path fill-rule="evenodd" clip-rule="evenodd" d="M1067.9 46.3963C1058.6 46.3963 1051.07 53.9206 1051.07 63.2023V237.984C1051.07 247.265 1058.6 254.79 1067.9 254.79H1120.07C1129.36 254.79 1136.89 247.265 1136.89 237.984V63.2023C1136.89 53.9206 1129.36 46.3963 1120.07 46.3963H1067.9ZM1074.63 125.384V58.1605H1118.38V125.384H1074.63Z" fill="black"/>
<path d="M1153.72 46.3963V78.3275H1180.65V46.3963H1153.72Z" fill="black"/>
<path d="M1253.01 46.3963V58.1605H1301.81V46.3963H1253.01Z" fill="black"/>
<path d="M2789.41 58.1605V125.384H2833.16V58.1605H2789.41Z" fill="black"/>
<path fill-rule="evenodd" clip-rule="evenodd" d="M2765.85 63.2023V237.984C2765.85 247.265 2773.38 254.79 2782.68 254.79H2834.84C2844.14 254.79 2851.67 247.265 2851.67 237.984V63.2023C2851.67 53.9206 2844.14 46.3963 2834.84 46.3963H2782.68C2773.38 46.3963 2765.85 53.9206 2765.85 63.2023ZM2789.41 125.384V58.1605H2833.16V125.384H2789.41Z" fill="black"/>
<path d="M181.06 244.706L90.1887 263.192H189.474L181.06 244.706Z" fill="black"/>
<path d="M3001.44 169.079L795.284 180.844L1022.46 202.691H3001.44V169.079Z" fill="black"/>
<path d="M1128.48 222.858L1089.77 214.455L3001.44 211.094V222.858H1128.48Z" fill="black"/>
<path d="M1244.59 157.315V113.62C1244.59 108.051 1249.11 103.536 1254.69 103.536H1298.44C1304.02 103.536 1308.54 108.051 1308.54 113.62V157.315C1308.54 162.884 1304.02 167.399 1298.44 167.399H1254.69C1249.11 167.399 1244.59 162.884 1244.59 157.315Z" fill="black"/>
<path d="M1359.02 157.315V113.62C1359.02 108.051 1363.54 103.536 1369.12 103.536H1412.87C1418.45 103.536 1422.97 108.051 1422.97 113.62V157.315C1422.97 162.884 1418.45 167.399 1412.87 167.399H1369.12C1363.54 167.399 1359.02 162.884 1359.02 157.315Z" fill="black"/>
<path d="M1473.45 157.315V113.62C1473.45 108.051 1477.97 103.536 1483.55 103.536H1527.3C1532.88 103.536 1537.4 108.051 1537.4 113.62V157.315C1537.4 162.884 1532.88 167.399 1527.3 167.399H1483.55C1477.97 167.399 1473.45 162.884 1473.45 157.315Z" fill="black"/>
<path d="M1587.88 157.315V113.62C1587.88 108.051 1592.41 103.536 1597.98 103.536H1641.73C1647.31 103.536 1651.83 108.051 1651.83 113.62V157.315C1651.83 162.884 1647.31 167.399 1641.73 167.399H1597.98C1592.41 167.399 1587.88 162.884 1587.88 157.315Z" fill="black"/>
<path d="M1702.32 157.315V113.62C1702.32 108.051 1706.84 103.536 1712.41 103.536H1756.17C1761.74 103.536 1766.26 108.051 1766.26 113.62V157.315C1766.26 162.884 1761.74 167.399 1756.17 167.399H1712.41C1706.84 167.399 1702.32 162.884 1702.32 157.315Z" fill="black"/>
<path d="M1816.75 157.315V113.62C1816.75 108.051 1821.27 103.536 1826.84 103.536H1870.6C1876.17 103.536 1880.69 108.051 1880.69 113.62V157.315C1880.69 162.884 1876.17 167.399 1870.6 167.399H1826.84C1821.27 167.399 1816.75 162.884 1816.75 157.315Z" fill="black"/>
<path d="M1931.18 157.315V113.62C1931.18 108.051 1935.7 103.536 1941.27 103.536H1985.03C1990.6 103.536 1995.12 108.051 1995.12 113.62V157.315C1995.12 162.884 1990.6 167.399 1985.03 167.399H1941.27C1935.7 167.399 1931.18 162.884 1931.18 157.315Z" fill="black"/>
<path d="M2045.61 157.315V113.62C2045.61 108.051 2050.13 103.536 2055.7 103.536H2099.46C2105.03 103.536 2109.55 108.051 2109.55 113.62V157.315C2109.55 162.884 2105.03 167.399 2099.46 167.399H2055.7C2050.13 167.399 2045.61 162.884 2045.61 157.315Z" fill="black"/>
<path d="M2160.04 157.315V113.62C2160.04 108.051 2164.56 103.536 2170.14 103.536H2213.89C2219.46 103.536 2223.99 108.051 2223.99 113.62V157.315C2223.99 162.884 2219.46 167.399 2213.89 167.399H2170.14C2164.56 167.399 2160.04 162.884 2160.04 157.315Z" fill="black"/>
<path d="M2274.47 157.315V113.62C2274.47 108.051 2278.99 103.536 2284.57 103.536H2328.32C2333.9 103.536 2338.42 108.051 2338.42 113.62V157.315C2338.42 162.884 2333.9 167.399 2328.32 167.399H2284.57C2278.99 167.399 2274.47 162.884 2274.47 157.315Z" fill="black"/>
<path d="M2388.9 157.315V113.62C2388.9 108.051 2393.42 103.536 2399 103.536H2442.75C2448.33 103.536 2452.85 108.051 2452.85 113.62V157.315C2452.85 162.884 2448.33 167.399 2442.75 167.399H2399C2393.42 167.399 2388.9 162.884 2388.9 157.315Z" fill="black"/>
<path d="M2503.33 157.315V113.62C2503.33 108.051 2507.85 103.536 2513.43 103.536H2557.18C2562.76 103.536 2567.28 108.051 2567.28 113.62V157.315C2567.28 162.884 2562.76 167.399 2557.18 167.399H2513.43C2507.85 167.399 2503.33 162.884 2503.33 157.315Z" fill="black"/>
<path d="M2617.76 157.315V113.62C2617.76 108.051 2622.28 103.536 2627.86 103.536H2671.61C2677.19 103.536 2681.71 108.051 2681.71 113.62V157.315C2681.71 162.884 2677.19 167.399 2671.61 167.399H2627.86C2622.28 167.399 2617.76 162.884 2617.76 157.315Z" fill="black"/>
<path d="M3001.44 44.7157C3001.44 38.2186 3006.71 32.9516 3013.22 32.9516C3019.73 32.9516 3025 38.2186 3025 44.7157V293.443C3025 299.94 3019.73 305.207 3013.22 305.207C3006.71 305.207 3001.44 299.94 3001.44 293.443V44.7157Z" fill="black"/>
<path d="M1 335.459C17.2671 357.306 65.2831 401.001 127.21 401.001M1 335.459C1 335.353 1.00892 335.246 1.02666 335.14M1 335.459C1.00872 335.353 1.01761 335.246 1.02666 335.14M1 335.459L1.02666 335.14M3003.12 308.568C3003.68 243.586 3004.47 102.193 3003.12 56.4814C3001.78 10.7694 2991.34 0.46179 2986.3 1.02199L2148.26 5.22352L1310.22 9.42499C1121.75 13.9066 745.473 25.2225 748.165 34.6338C751.531 46.3979 154.135 216.137 81.7746 224.54C24.0661 231.242 3.92992 300.852 1.02666 335.14M3003.12 308.568H213.033C142.917 311.904 3.24178 321.856 1.02666 335.14M3003.12 308.568C3002.78 356.969 2991.76 390.357 2986.3 401.001M127.21 401.001C189.138 401.001 1991.2 401.001 2986.3 401.001M127.21 401.001H2986.3M682.536 59.8411C716.753 63.7625 766.676 78.6637 692.633 106.898C618.589 135.131 475.551 139.949 413.287 138.829M961.882 78.3275V148.912H993.855V78.3275H961.882ZM1074.63 58.1605V125.384H1118.38V58.1605H1074.63ZM1153.72 46.3963V78.3275H1180.65V46.3963H1153.72ZM1253.01 46.3963V58.1605H1301.81V46.3963H1253.01ZM2765.85 63.2023V237.984C2765.85 247.265 2773.38 254.79 2782.68 254.79H2834.84C2844.14 254.79 2851.67 247.265 2851.67 237.984V63.2023C2851.67 53.9206 2844.14 46.3963 2834.84 46.3963H2782.68C2773.38 46.3963 2765.85 53.9206 2765.85 63.2023ZM2789.41 58.1605V125.384H2833.16V58.1605H2789.41ZM1120.07 254.79H1067.9C1058.6 254.79 1051.07 247.265 1051.07 237.984V63.2023C1051.07 53.9206 1058.6 46.3963 1067.9 46.3963H1120.07C1129.36 46.3963 1136.89 53.9206 1136.89 63.2023V237.984C1136.89 247.265 1129.36 254.79 1120.07 254.79ZM1012.37 64.8828V248.067C1012.37 251.78 1009.35 254.79 1005.63 254.79H953.468C949.75 254.79 946.736 251.78 946.736 248.067V64.8828C946.736 61.1702 949.75 58.1605 953.468 58.1605H1005.63C1009.35 58.1605 1012.37 61.1702 1012.37 64.8828ZM90.1887 263.192L181.06 244.706L189.474 263.192H90.1887ZM795.284 180.844L3001.44 169.079V202.691H1022.46L795.284 180.844ZM1089.77 214.455L1128.48 222.858H3001.44V211.094L1089.77 214.455ZM1244.59 113.62V157.315C1244.59 162.884 1249.11 167.399 1254.69 167.399H1298.44C1304.02 167.399 1308.54 162.884 1308.54 157.315V113.62C1308.54 108.051 1304.02 103.536 1298.44 103.536H1254.69C1249.11 103.536 1244.59 108.051 1244.59 113.62ZM1359.02 113.62V157.315C1359.02 162.884 1363.54 167.399 1369.12 167.399H1412.87C1418.45 167.399 1422.97 162.884 1422.97 157.315V113.62C1422.97 108.051 1418.45 103.536 1412.87 103.536H1369.12C1363.54 103.536 1359.02 108.051 1359.02 113.62ZM1473.45 113.62V157.315C1473.45 162.884 1477.97 167.399 1483.55 167.399H1527.3C1532.88 167.399 1537.4 162.884 1537.4 157.315V113.62C1537.4 108.051 1532.88 103.536 1527.3 103.536H1483.55C1477.97 103.536 1473.45 108.051 1473.45 113.62ZM1587.88 113.62V157.315C1587.88 162.884 1592.41 167.399 1597.98 167.399H1641.73C1647.31 167.399 1651.83 162.884 1651.83 157.315V113.62C1651.83 108.051 1647.31 103.536 1641.73 103.536H1597.98C1592.41 103.536 1587.88 108.051 1587.88 113.62ZM1702.32 113.62V157.315C1702.32 162.884 1706.84 167.399 1712.41 167.399H1756.17C1761.74 167.399 1766.26 162.884 1766.26 157.315V113.62C1766.26 108.051 1761.74 103.536 1756.17 103.536H1712.41C1706.84 103.536 1702.32 108.051 1702.32 113.62ZM1816.75 113.62V157.315C1816.75 162.884 1821.27 167.399 1826.84 167.399H1870.6C1876.17 167.399 1880.69 162.884 1880.69 157.315V113.62C1880.69 108.051 1876.17 103.536 1870.6 103.536H1826.84C1821.27 103.536 1816.75 108.051 1816.75 113.62ZM1931.18 113.62V157.315C1931.18 162.884 1935.7 167.399 1941.27 167.399H1985.03C1990.6 167.399 1995.12 162.884 1995.12 157.315V113.62C1995.12 108.051 1990.6 103.536 1985.03 103.536H1941.27C1935.7 103.536 1931.18 108.051 1931.18 113.62ZM2045.61 113.62V157.315C2045.61 162.884 2050.13 167.399 2055.7 167.399H2099.46C2105.03 167.399 2109.55 162.884 2109.55 157.315V113.62C2109.55 108.051 2105.03 103.536 2099.46 103.536H2055.7C2050.13 103.536 2045.61 108.051 2045.61 113.62ZM2160.04 113.62V157.315C2160.04 162.884 2164.56 167.399 2170.14 167.399H2213.89C2219.46 167.399 2223.99 162.884 2223.99 157.315V113.62C2223.99 108.051 2219.46 103.536 2213.89 103.536H2170.14C2164.56 103.536 2160.04 108.051 2160.04 113.62ZM2274.47 113.62V157.315C2274.47 162.884 2278.99 167.399 2284.57 167.399H2328.32C2333.9 167.399 2338.42 162.884 2338.42 157.315V113.62C2338.42 108.051 2333.9 103.536 2328.32 103.536H2284.57C2278.99 103.536 2274.47 108.051 2274.47 113.62ZM2388.9 113.62V157.315C2388.9 162.884 2393.42 167.399 2399 167.399H2442.75C2448.33 167.399 2452.85 162.884 2452.85 157.315V113.62C2452.85 108.051 2448.33 103.536 2442.75 103.536H2399C2393.42 103.536 2388.9 108.051 2388.9 113.62ZM2503.33 113.62V157.315C2503.33 162.884 2507.85 167.399 2513.43 167.399H2557.18C2562.76 167.399 2567.28 162.884 2567.28 157.315V113.62C2567.28 108.051 2562.76 103.536 2557.18 103.536H2513.43C2507.85 103.536 2503.33 108.051 2503.33 113.62ZM2617.76 113.62V157.315C2617.76 162.884 2622.28 167.399 2627.86 167.399H2671.61C2677.19 167.399 2681.71 162.884 2681.71 157.315V113.62C2681.71 108.051 2677.19 103.536 2671.61 103.536H2627.86C2622.28 103.536 2617.76 108.051 2617.76 113.62ZM3013.22 305.207C3006.71 305.207 3001.44 299.94 3001.44 293.443V44.7157C3001.44 38.2186 3006.71 32.9516 3013.22 32.9516C3019.73 32.9516 3025 38.2186 3025 44.7157V293.443C3025 299.94 3019.73 305.207 3013.22 305.207Z" stroke="white" stroke-linecap="round"/>
</svg>
