<svg width="1584" height="481" viewBox="0 0 1584 481" fill="none" xmlns="http://www.w3.org/2000/svg">
<path d="M998.353 404.611C1008.92 404.611 1017.47 413.126 1017.47 423.625C1017.47 434.123 1008.92 442.638 998.353 442.638C987.79 442.638 979.232 434.123 979.232 423.625C979.232 413.126 987.79 404.611 998.353 404.611Z" fill="black" stroke="white"/>
<path d="M958.667 404.611C969.23 404.611 977.788 413.126 977.788 423.625C977.788 434.123 969.229 442.638 958.667 442.638C948.105 442.638 939.547 434.123 939.547 423.625C939.547 413.126 948.105 404.611 958.667 404.611Z" fill="black" stroke="white"/>
<path d="M918.983 404.611C929.546 404.611 938.104 413.126 938.104 423.625C938.104 434.123 929.546 442.638 918.983 442.638C908.421 442.638 899.863 434.123 899.863 423.625C899.863 413.126 908.421 404.611 918.983 404.611Z" fill="black" stroke="white"/>
<path d="M227.638 404.611C238.2 404.611 246.759 413.126 246.759 423.625C246.759 434.123 238.2 442.638 227.638 442.638C217.075 442.638 208.518 434.123 208.518 423.625C208.518 413.126 217.075 404.611 227.638 404.611Z" fill="black" stroke="white"/>
<path d="M1560.63 274V295.772C1560.63 297.841 1559.39 299.684 1557.46 300.422C1405.06 358.618 1175.11 415.811 1099.11 425.172C966.687 425.172 652.189 426.072 453.558 429.671C254.928 433.27 155.418 428.172 137.502 425.172C33.8737 405.5 5.9353 383.6 1.0542 362.143C0.869385 361.331 0.921021 360.499 1.20337 359.715C18.5802 311.477 140.879 276.012 196.507 269C241.277 263.356 970.931 251.271 1293.32 250.368C1294.7 250.364 1295.94 249.792 1296.88 248.787L1527.6 2.58102C1528.55 1.57233 1529.87 1 1531.25 1H1577.43C1580.73 1 1583.13 4.14905 1582.25 7.33406L1511.56 262.666C1510.68 265.851 1513.07 269 1516.38 269H1555.63C1558.39 269 1560.63 271.238 1560.63 274Z" fill="black" stroke="white"/>
<path d="M1511.94 289.235L1568.36 268.197C1569.41 267.807 1569.13 266.26 1568.01 266.26H1506.63L1336.49 289.235" stroke="white"/>
<path d="M833.88 382.112C924.529 350.52 973.76 328.282 1060.55 285.71H992.198C792.595 339.282 685.247 359.337 499.711 382.112" stroke="white"/>
<path d="M562.449 386.595C674.494 378.675 781.079 386.513 779.553 430.189C782.52 479.166 598.195 478.946 559.488 471.378L562.449 386.595Z" fill="black" stroke="white"/>
</svg>
