<svg width="2153" height="459" viewBox="0 0 2153 459" fill="none" xmlns="http://www.w3.org/2000/svg">
<path d="M20.5 88C20.5 82.4772 24.9772 78 30.5 78H2122.5C2128.02 78 2132.5 82.4772 2132.5 88V411C2132.5 416.523 2128.02 421 2122.5 421H2052.01C2048.86 421 2045.89 419.513 2044 416.988L2011.5 373.512C2009.61 370.987 2006.64 369.5 2003.49 369.5H1630.4C1627.31 369.5 1624.39 370.927 1622.5 373.366L1588.5 417.134C1586.61 419.573 1583.69 421 1580.6 421H575.764C572.75 421 569.897 419.641 567.998 417.3L531.002 371.7C529.103 369.359 526.25 368 523.236 368H151.332C148.865 368 146.485 368.912 144.649 370.561L91.3507 418.439C89.5153 420.088 87.1352 421 84.668 421H30.5C24.9772 421 20.5 416.523 20.5 411V88Z" fill="black"/>
<path d="M20.3508 381.464V171.911C20.3508 166.437 15.9072 162 10.4255 162C6.17025 162 2.54036 164.674 1.12915 168.431C0.722412 169.514 0.5 170.687 0.5 171.911V342.1V381.464C0.5 383.376 1.04199 385.161 1.98096 386.675C3.73052 389.496 6.85824 391.375 10.4255 391.375C15.9072 391.375 20.3508 386.938 20.3508 381.464Z" fill="black"/>
<path d="M2152.35 381.464V171.911C2152.35 166.437 2147.91 162 2142.43 162C2138.17 162 2134.54 164.674 2133.13 168.431C2132.72 169.514 2132.5 170.687 2132.5 171.911V342.1V381.464C2132.5 383.376 2133.04 385.161 2133.98 386.675C2135.73 389.496 2138.86 391.375 2142.43 391.375C2147.91 391.375 2152.35 386.938 2152.35 381.464Z" fill="black"/>
<path d="M34.5 172C34.5 166.477 38.9772 162 44.5 162H94.5C100.023 162 104.5 166.477 104.5 172V381C104.5 386.523 100.023 391 94.5 391H44.5C38.9772 391 34.5 386.523 34.5 381V172Z" fill="black"/>
<path d="M46.5 214C46.5 208.477 50.9772 204 56.5 204H82.5C88.0228 204 92.5 208.477 92.5 214V277C92.5 282.523 88.0228 287 82.5 287H56.5C50.9772 287 46.5 282.523 46.5 277V214Z" fill="black"/>
<path d="M2047.5 172C2047.5 166.477 2051.98 162 2057.5 162H2107.5C2113.02 162 2117.5 166.477 2117.5 172V381C2117.5 386.523 2113.02 391 2107.5 391H2057.5C2051.98 391 2047.5 386.523 2047.5 381V172Z" fill="black"/>
<path d="M2059.5 214C2059.5 208.477 2063.98 204 2069.5 204H2095.5C2101.02 204 2105.5 208.477 2105.5 214V277C2105.5 282.523 2101.02 287 2095.5 287H2069.5C2063.98 287 2059.5 282.523 2059.5 277V214Z" fill="black"/>
<path d="M104.5 289H2047.5V306H104.5V289Z" fill="black"/>
<path d="M104.5 187H2047.5V199H104.5V187Z" fill="black"/>
<path d="M273.5 242C273.5 239.239 275.739 237 278.5 237H357.5C360.261 237 362.5 239.239 362.5 242V278C362.5 280.761 360.261 283 357.5 283H278.5C275.739 283 273.5 280.761 273.5 278V242Z" fill="black"/>
<path d="M273.5 210C273.5 207.239 275.739 205 278.5 205H357.5C360.261 205 362.5 207.239 362.5 210V226C362.5 228.761 360.261 231 357.5 231H278.5C275.739 231 273.5 228.761 273.5 226V210Z" fill="black"/>
<path d="M412.5 242C412.5 239.239 414.739 237 417.5 237H496.5C499.261 237 501.5 239.239 501.5 242V278C501.5 280.761 499.261 283 496.5 283H417.5C414.739 283 412.5 280.761 412.5 278V242Z" fill="black"/>
<path d="M412.5 210C412.5 207.239 414.739 205 417.5 205H496.5C499.261 205 501.5 207.239 501.5 210V226C501.5 228.761 499.261 231 496.5 231H417.5C414.739 231 412.5 228.761 412.5 226V210Z" fill="black"/>
<path d="M551.5 242C551.5 239.239 553.739 237 556.5 237H635.5C638.261 237 640.5 239.239 640.5 242V278C640.5 280.761 638.261 283 635.5 283H556.5C553.739 283 551.5 280.761 551.5 278V242Z" fill="black"/>
<path d="M551.5 210C551.5 207.239 553.739 205 556.5 205H635.5C638.261 205 640.5 207.239 640.5 210V226C640.5 228.761 638.261 231 635.5 231H556.5C553.739 231 551.5 228.761 551.5 226V210Z" fill="black"/>
<path d="M690.5 242C690.5 239.239 692.739 237 695.5 237H774.5C777.261 237 779.5 239.239 779.5 242V278C779.5 280.761 777.261 283 774.5 283H695.5C692.739 283 690.5 280.761 690.5 278V242Z" fill="black"/>
<path d="M690.5 210C690.5 207.239 692.739 205 695.5 205H774.5C777.261 205 779.5 207.239 779.5 210V226C779.5 228.761 777.261 231 774.5 231H695.5C692.739 231 690.5 228.761 690.5 226V210Z" fill="black"/>
<path d="M829.5 242C829.5 239.239 831.739 237 834.5 237H913.5C916.261 237 918.5 239.239 918.5 242V278C918.5 280.761 916.261 283 913.5 283H834.5C831.739 283 829.5 280.761 829.5 278V242Z" fill="black"/>
<path d="M829.5 210C829.5 207.239 831.739 205 834.5 205H913.5C916.261 205 918.5 207.239 918.5 210V226C918.5 228.761 916.261 231 913.5 231H834.5C831.739 231 829.5 228.761 829.5 226V210Z" fill="black"/>
<path d="M968.5 242C968.5 239.239 970.739 237 973.5 237H1052.5C1055.26 237 1057.5 239.239 1057.5 242V278C1057.5 280.761 1055.26 283 1052.5 283H973.5C970.739 283 968.5 280.761 968.5 278V242Z" fill="black"/>
<path d="M968.5 210C968.5 207.239 970.739 205 973.5 205H1052.5C1055.26 205 1057.5 207.239 1057.5 210V226C1057.5 228.761 1055.26 231 1052.5 231H973.5C970.739 231 968.5 228.761 968.5 226V210Z" fill="black"/>
<path d="M1107.5 242C1107.5 239.239 1109.74 237 1112.5 237H1191.5C1194.26 237 1196.5 239.239 1196.5 242V278C1196.5 280.761 1194.26 283 1191.5 283H1112.5C1109.74 283 1107.5 280.761 1107.5 278V242Z" fill="black"/>
<path d="M1107.5 210C1107.5 207.239 1109.74 205 1112.5 205H1191.5C1194.26 205 1196.5 207.239 1196.5 210V226C1196.5 228.761 1194.26 231 1191.5 231H1112.5C1109.74 231 1107.5 228.761 1107.5 226V210Z" fill="black"/>
<path d="M1246.5 242C1246.5 239.239 1248.74 237 1251.5 237H1330.5C1333.26 237 1335.5 239.239 1335.5 242V278C1335.5 280.761 1333.26 283 1330.5 283H1251.5C1248.74 283 1246.5 280.761 1246.5 278V242Z" fill="black"/>
<path d="M1246.5 210C1246.5 207.239 1248.74 205 1251.5 205H1330.5C1333.26 205 1335.5 207.239 1335.5 210V226C1335.5 228.761 1333.26 231 1330.5 231H1251.5C1248.74 231 1246.5 228.761 1246.5 226V210Z" fill="black"/>
<path d="M1385.5 242C1385.5 239.239 1387.74 237 1390.5 237H1469.5C1472.26 237 1474.5 239.239 1474.5 242V278C1474.5 280.761 1472.26 283 1469.5 283H1390.5C1387.74 283 1385.5 280.761 1385.5 278V242Z" fill="black"/>
<path d="M1385.5 210C1385.5 207.239 1387.74 205 1390.5 205H1469.5C1472.26 205 1474.5 207.239 1474.5 210V226C1474.5 228.761 1472.26 231 1469.5 231H1390.5C1387.74 231 1385.5 228.761 1385.5 226V210Z" fill="black"/>
<path d="M1524.5 242C1524.5 239.239 1526.74 237 1529.5 237H1608.5C1611.26 237 1613.5 239.239 1613.5 242V278C1613.5 280.761 1611.26 283 1608.5 283H1529.5C1526.74 283 1524.5 280.761 1524.5 278V242Z" fill="black"/>
<path d="M1524.5 210C1524.5 207.239 1526.74 205 1529.5 205H1608.5C1611.26 205 1613.5 207.239 1613.5 210V226C1613.5 228.761 1611.26 231 1608.5 231H1529.5C1526.74 231 1524.5 228.761 1524.5 226V210Z" fill="black"/>
<path d="M1663.5 242C1663.5 239.239 1665.74 237 1668.5 237H1747.5C1750.26 237 1752.5 239.239 1752.5 242V278C1752.5 280.761 1750.26 283 1747.5 283H1668.5C1665.74 283 1663.5 280.761 1663.5 278V242Z" fill="black"/>
<path d="M1663.5 210C1663.5 207.239 1665.74 205 1668.5 205H1747.5C1750.26 205 1752.5 207.239 1752.5 210V226C1752.5 228.761 1750.26 231 1747.5 231H1668.5C1665.74 231 1663.5 228.761 1663.5 226V210Z" fill="black"/>
<path d="M1802.5 242C1802.5 239.239 1804.74 237 1807.5 237H1886.5C1889.26 237 1891.5 239.239 1891.5 242V278C1891.5 280.761 1889.26 283 1886.5 283H1807.5C1804.74 283 1802.5 280.761 1802.5 278V242Z" fill="black"/>
<path d="M1802.5 210C1802.5 207.239 1804.74 205 1807.5 205H1886.5C1889.26 205 1891.5 207.239 1891.5 210V226C1891.5 228.761 1889.26 231 1886.5 231H1807.5C1804.74 231 1802.5 228.761 1802.5 226V210Z" fill="black"/>
<path d="M268.5 415.5C268.5 438.972 249.472 458 226 458C202.528 458 183.5 438.972 183.5 415.5C183.5 392.028 202.528 373 226 373C249.472 373 268.5 392.028 268.5 415.5Z" fill="black"/>
<path d="M486.5 415.5C486.5 438.972 467.472 458 444 458C420.528 458 401.5 438.972 401.5 415.5C401.5 392.028 420.528 373 444 373C467.472 373 486.5 392.028 486.5 415.5Z" fill="black"/>
<path d="M210.5 416C210.5 409.925 215.425 405 221.5 405H445.5C451.575 405 456.5 409.925 456.5 416C456.5 422.075 451.575 427 445.5 427H221.5C215.425 427 210.5 422.075 210.5 416Z" fill="black"/>
<path d="M1751.5 415.5C1751.5 438.972 1732.47 458 1709 458C1685.53 458 1666.5 438.972 1666.5 415.5C1666.5 392.028 1685.53 373 1709 373C1732.47 373 1751.5 392.028 1751.5 415.5Z" fill="black"/>
<path d="M1969.5 415.5C1969.5 438.972 1950.47 458 1927 458C1903.53 458 1884.5 438.972 1884.5 415.5C1884.5 392.028 1903.53 373 1927 373C1950.47 373 1969.5 392.028 1969.5 415.5Z" fill="black"/>
<path d="M1693.5 416C1693.5 409.925 1698.42 405 1704.5 405H1928.5C1934.58 405 1939.5 409.925 1939.5 416C1939.5 422.075 1934.58 427 1928.5 427H1704.5C1698.42 427 1693.5 422.075 1693.5 416Z" fill="black"/>
<path d="M0.5 342.1L1.23877 342.099M0.5 342.1V381.464C0.5 383.376 1.04199 385.161 1.98096 386.675C3.73052 389.496 6.85824 391.375 10.4255 391.375C15.9072 391.375 20.3508 386.938 20.3508 381.464V171.911C20.3508 166.437 15.9072 162 10.4255 162C6.17025 162 2.54036 164.674 1.12915 168.431C0.722412 169.514 0.5 170.687 0.5 171.911V342.1ZM2132.5 342.1L2133.24 342.099M2132.5 342.1V381.464C2132.5 383.376 2133.04 385.161 2133.98 386.675C2135.73 389.496 2138.86 391.375 2142.43 391.375C2147.91 391.375 2152.35 386.938 2152.35 381.464V171.911C2152.35 166.437 2147.91 162 2142.43 162C2138.17 162 2134.54 164.674 2133.13 168.431C2132.72 169.514 2132.5 170.687 2132.5 171.911V342.1ZM20.5 152H2132.5M2052.01 421H2122.5C2128.02 421 2132.5 416.523 2132.5 411V88C2132.5 82.4772 2128.02 78 2122.5 78H30.5C24.9772 78 20.5 82.4772 20.5 88V411C20.5 416.523 24.9772 421 30.5 421H84.668C87.1352 421 89.5153 420.088 91.3507 418.439L144.649 370.561C146.485 368.912 148.865 368 151.332 368H523.236C526.25 368 529.103 369.359 531.002 371.7L567.998 417.3C569.897 419.641 572.75 421 575.764 421H1580.6C1583.69 421 1586.61 419.573 1588.5 417.134L1622.5 373.366C1624.39 370.927 1627.31 369.5 1630.4 369.5H2003.49C2006.64 369.5 2009.61 370.987 2011.5 373.512L2044 416.988C2045.89 419.513 2048.86 421 2052.01 421ZM44.5 391H94.5C100.023 391 104.5 386.523 104.5 381V172C104.5 166.477 100.023 162 94.5 162H44.5C38.9772 162 34.5 166.477 34.5 172V381C34.5 386.523 38.9772 391 44.5 391ZM56.5 287H82.5C88.0228 287 92.5 282.523 92.5 277V214C92.5 208.477 88.0228 204 82.5 204H56.5C50.9772 204 46.5 208.477 46.5 214V277C46.5 282.523 50.9772 287 56.5 287ZM2057.5 391H2107.5C2113.02 391 2117.5 386.523 2117.5 381V172C2117.5 166.477 2113.02 162 2107.5 162H2057.5C2051.98 162 2047.5 166.477 2047.5 172V381C2047.5 386.523 2051.98 391 2057.5 391ZM2069.5 287H2095.5C2101.02 287 2105.5 282.523 2105.5 277V214C2105.5 208.477 2101.02 204 2095.5 204H2069.5C2063.98 204 2059.5 208.477 2059.5 214V277C2059.5 282.523 2063.98 287 2069.5 287ZM104.5 289H2047.5V306H104.5V289ZM104.5 187H2047.5V199H104.5V187ZM278.5 283H357.5C360.261 283 362.5 280.761 362.5 278V242C362.5 239.239 360.261 237 357.5 237H278.5C275.739 237 273.5 239.239 273.5 242V278C273.5 280.761 275.739 283 278.5 283ZM278.5 231H357.5C360.261 231 362.5 228.761 362.5 226V210C362.5 207.239 360.261 205 357.5 205H278.5C275.739 205 273.5 207.239 273.5 210V226C273.5 228.761 275.739 231 278.5 231ZM417.5 283H496.5C499.261 283 501.5 280.761 501.5 278V242C501.5 239.239 499.261 237 496.5 237H417.5C414.739 237 412.5 239.239 412.5 242V278C412.5 280.761 414.739 283 417.5 283ZM417.5 231H496.5C499.261 231 501.5 228.761 501.5 226V210C501.5 207.239 499.261 205 496.5 205H417.5C414.739 205 412.5 207.239 412.5 210V226C412.5 228.761 414.739 231 417.5 231ZM556.5 283H635.5C638.261 283 640.5 280.761 640.5 278V242C640.5 239.239 638.261 237 635.5 237H556.5C553.739 237 551.5 239.239 551.5 242V278C551.5 280.761 553.739 283 556.5 283ZM556.5 231H635.5C638.261 231 640.5 228.761 640.5 226V210C640.5 207.239 638.261 205 635.5 205H556.5C553.739 205 551.5 207.239 551.5 210V226C551.5 228.761 553.739 231 556.5 231ZM695.5 283H774.5C777.261 283 779.5 280.761 779.5 278V242C779.5 239.239 777.261 237 774.5 237H695.5C692.739 237 690.5 239.239 690.5 242V278C690.5 280.761 692.739 283 695.5 283ZM695.5 231H774.5C777.261 231 779.5 228.761 779.5 226V210C779.5 207.239 777.261 205 774.5 205H695.5C692.739 205 690.5 207.239 690.5 210V226C690.5 228.761 692.739 231 695.5 231ZM834.5 283H913.5C916.261 283 918.5 280.761 918.5 278V242C918.5 239.239 916.261 237 913.5 237H834.5C831.739 237 829.5 239.239 829.5 242V278C829.5 280.761 831.739 283 834.5 283ZM834.5 231H913.5C916.261 231 918.5 228.761 918.5 226V210C918.5 207.239 916.261 205 913.5 205H834.5C831.739 205 829.5 207.239 829.5 210V226C829.5 228.761 831.739 231 834.5 231ZM973.5 283H1052.5C1055.26 283 1057.5 280.761 1057.5 278V242C1057.5 239.239 1055.26 237 1052.5 237H973.5C970.739 237 968.5 239.239 968.5 242V278C968.5 280.761 970.739 283 973.5 283ZM973.5 231H1052.5C1055.26 231 1057.5 228.761 1057.5 226V210C1057.5 207.239 1055.26 205 1052.5 205H973.5C970.739 205 968.5 207.239 968.5 210V226C968.5 228.761 970.739 231 973.5 231ZM1112.5 283H1191.5C1194.26 283 1196.5 280.761 1196.5 278V242C1196.5 239.239 1194.26 237 1191.5 237H1112.5C1109.74 237 1107.5 239.239 1107.5 242V278C1107.5 280.761 1109.74 283 1112.5 283ZM1112.5 231H1191.5C1194.26 231 1196.5 228.761 1196.5 226V210C1196.5 207.239 1194.26 205 1191.5 205H1112.5C1109.74 205 1107.5 207.239 1107.5 210V226C1107.5 228.761 1109.74 231 1112.5 231ZM1251.5 283H1330.5C1333.26 283 1335.5 280.761 1335.5 278V242C1335.5 239.239 1333.26 237 1330.5 237H1251.5C1248.74 237 1246.5 239.239 1246.5 242V278C1246.5 280.761 1248.74 283 1251.5 283ZM1251.5 231H1330.5C1333.26 231 1335.5 228.761 1335.5 226V210C1335.5 207.239 1333.26 205 1330.5 205H1251.5C1248.74 205 1246.5 207.239 1246.5 210V226C1246.5 228.761 1248.74 231 1251.5 231ZM1390.5 283H1469.5C1472.26 283 1474.5 280.761 1474.5 278V242C1474.5 239.239 1472.26 237 1469.5 237H1390.5C1387.74 237 1385.5 239.239 1385.5 242V278C1385.5 280.761 1387.74 283 1390.5 283ZM1390.5 231H1469.5C1472.26 231 1474.5 228.761 1474.5 226V210C1474.5 207.239 1472.26 205 1469.5 205H1390.5C1387.74 205 1385.5 207.239 1385.5 210V226C1385.5 228.761 1387.74 231 1390.5 231ZM1529.5 283H1608.5C1611.26 283 1613.5 280.761 1613.5 278V242C1613.5 239.239 1611.26 237 1608.5 237H1529.5C1526.74 237 1524.5 239.239 1524.5 242V278C1524.5 280.761 1526.74 283 1529.5 283ZM1529.5 231H1608.5C1611.26 231 1613.5 228.761 1613.5 226V210C1613.5 207.239 1611.26 205 1608.5 205H1529.5C1526.74 205 1524.5 207.239 1524.5 210V226C1524.5 228.761 1526.74 231 1529.5 231ZM1668.5 283H1747.5C1750.26 283 1752.5 280.761 1752.5 278V242C1752.5 239.239 1750.26 237 1747.5 237H1668.5C1665.74 237 1663.5 239.239 1663.5 242V278C1663.5 280.761 1665.74 283 1668.5 283ZM1668.5 231H1747.5C1750.26 231 1752.5 228.761 1752.5 226V210C1752.5 207.239 1750.26 205 1747.5 205H1668.5C1665.74 205 1663.5 207.239 1663.5 210V226C1663.5 228.761 1665.74 231 1668.5 231ZM1807.5 283H1886.5C1889.26 283 1891.5 280.761 1891.5 278V242C1891.5 239.239 1889.26 237 1886.5 237H1807.5C1804.74 237 1802.5 239.239 1802.5 242V278C1802.5 280.761 1804.74 283 1807.5 283ZM1807.5 231H1886.5C1889.26 231 1891.5 228.761 1891.5 226V210C1891.5 207.239 1889.26 205 1886.5 205H1807.5C1804.74 205 1802.5 207.239 1802.5 210V226C1802.5 228.761 1804.74 231 1807.5 231ZM268.5 415.5C268.5 438.972 249.472 458 226 458C202.528 458 183.5 438.972 183.5 415.5C183.5 392.028 202.528 373 226 373C249.472 373 268.5 392.028 268.5 415.5ZM486.5 415.5C486.5 438.972 467.472 458 444 458C420.528 458 401.5 438.972 401.5 415.5C401.5 392.028 420.528 373 444 373C467.472 373 486.5 392.028 486.5 415.5ZM221.5 427H445.5C451.575 427 456.5 422.075 456.5 416C456.5 409.925 451.575 405 445.5 405H221.5C215.425 405 210.5 409.925 210.5 416C210.5 422.075 215.425 427 221.5 427ZM1751.5 415.5C1751.5 438.972 1732.47 458 1709 458C1685.53 458 1666.5 438.972 1666.5 415.5C1666.5 392.028 1685.53 373 1709 373C1732.47 373 1751.5 392.028 1751.5 415.5ZM1969.5 415.5C1969.5 438.972 1950.47 458 1927 458C1903.53 458 1884.5 438.972 1884.5 415.5C1884.5 392.028 1903.53 373 1927 373C1950.47 373 1969.5 392.028 1969.5 415.5ZM1704.5 427H1928.5C1934.58 427 1939.5 422.075 1939.5 416C1939.5 409.925 1934.58 405 1928.5 405H1704.5C1698.42 405 1693.5 409.925 1693.5 416C1693.5 422.075 1698.42 427 1704.5 427Z" stroke="white"/>
</svg>
