<svg width="28" height="28" viewBox="0 0 28 28" fill="none" xmlns="http://www.w3.org/2000/svg">
<path d="M17.5277 24H10.4723C10.0643 23.9999 9.67307 23.8378 9.38462 23.5492L4.45077 18.6154C4.16223 18.3269 4.00009 17.9357 4 17.5277V10.4723C4.00009 10.0643 4.16223 9.67307 4.45077 9.38462L9.38462 4.45077C9.67307 4.16223 10.0643 4.00009 10.4723 4H17.5277C17.9357 4.00009 18.3269 4.16223 18.6154 4.45077L23.5492 9.38462C23.8378 9.67307 23.9999 10.0643 24 10.4723V17.5277C23.9999 17.9357 23.8378 18.3269 23.5492 18.6154L18.6154 23.5492C18.3269 23.8378 17.9357 23.9999 17.5277 24ZM10.4723 5.53846L5.53846 10.4723V17.5277L10.4723 22.4615H17.5277L22.4615 17.5277V10.4723L17.5277 5.53846H10.4723Z" fill="white"/>
</svg>
