<svg width="28" height="28" viewBox="0 0 28 28" fill="none" xmlns="http://www.w3.org/2000/svg">
<path d="M5.83331 17.6353V7C5.83331 6.23856 6.05226 5.62644 6.49015 5.16367C6.92804 4.70089 7.5207 4.34622 8.26815 4.09967C9.01559 3.85311 9.88476 3.69211 10.8756 3.61667C11.8665 3.54122 12.908 3.50233 14 3.5C15.134 3.5 16.1949 3.5385 17.1826 3.6155C18.1704 3.6925 19.0349 3.85428 19.7761 4.10083C20.5174 4.34739 21.1011 4.70167 21.5273 5.16367C21.9535 5.62567 22.1666 6.23778 22.1666 7V17.6353C22.1666 18.5726 21.84 19.3678 21.1866 20.0212C20.5341 20.6737 19.7392 21 18.802 21L20.552 22.75V23.3333H19.5638L17.2305 21H10.7695L8.43615 23.3333H7.44915V22.75L9.19915 21C8.26115 21 7.46587 20.6733 6.81331 20.02C6.15998 19.3682 5.83331 18.5733 5.83331 17.6353ZM14 4.66667C11.7141 4.66667 10.05 4.81833 9.00781 5.12167C7.96559 5.42422 7.33676 5.87106 7.12131 6.46217H20.9055C20.7033 5.86172 20.0799 5.41256 19.0353 5.11467C17.9908 4.816 16.3123 4.66667 14 4.66667ZM6.99998 12.8333H13.4166V7.62883H6.99998V12.8333ZM18.802 14H6.99998H21H18.802ZM14.5833 12.8333H21V7.62883H14.5833V12.8333ZM9.91665 18.2187C10.2876 18.2187 10.5972 18.0942 10.8453 17.8453C11.0934 17.5964 11.2179 17.2869 11.2186 16.9167C11.2194 16.5464 11.095 16.2369 10.8453 15.988C10.5956 15.7391 10.2861 15.6147 9.91665 15.6147C9.5472 15.6147 9.23765 15.7391 8.98798 15.988C8.73831 16.2369 8.61387 16.5464 8.61465 16.9167C8.61542 17.2869 8.73987 17.5964 8.98798 17.8453C9.23609 18.0942 9.54565 18.2187 9.91665 18.2187ZM18.0833 18.2187C18.4543 18.2187 18.7639 18.0942 19.012 17.8453C19.2601 17.5964 19.3845 17.2869 19.3853 16.9167C19.3861 16.5464 19.2616 16.2369 19.012 15.988C18.7623 15.7391 18.4528 15.6147 18.0833 15.6147C17.7139 15.6147 17.4043 15.7391 17.1546 15.988C16.905 16.2369 16.7805 16.5464 16.7813 16.9167C16.7821 17.2869 16.9065 17.5964 17.1546 17.8453C17.4028 18.0942 17.7123 18.2187 18.0833 18.2187ZM9.19915 19.8333H18.8008C19.4114 19.8333 19.9305 19.6194 20.3583 19.1917C20.7861 18.7639 21 18.2447 21 17.6342V14H6.99998V17.6353C6.99998 18.2451 7.21387 18.7639 7.64165 19.1917C8.06942 19.6194 8.58859 19.8333 9.19915 19.8333ZM14 6.46217H20.9055H7.12131H14Z" fill="white"/>
</svg>
