<svg width="28" height="28" viewBox="0 0 28 28" fill="none" xmlns="http://www.w3.org/2000/svg">
<path d="M7 14C7 14.2387 7.09219 14.4676 7.25628 14.6364C7.42038 14.8052 7.64294 14.9 7.875 14.9H14.5163L12.5037 16.961C12.4217 17.0447 12.3566 17.1442 12.3122 17.2539C12.2678 17.3636 12.2449 17.4812 12.2449 17.6C12.2449 17.7188 12.2678 17.8364 12.3122 17.9461C12.3566 18.0558 12.4217 18.1553 12.5037 18.239C12.5851 18.3234 12.6819 18.3903 12.7885 18.436C12.8951 18.4817 13.0095 18.5052 13.125 18.5052C13.2405 18.5052 13.3549 18.4817 13.4615 18.436C13.5681 18.3903 13.6649 18.3234 13.7463 18.239L17.2463 14.639C17.3259 14.5534 17.3884 14.4525 17.43 14.342C17.5175 14.1229 17.5175 13.8771 17.43 13.658C17.3884 13.5475 17.3259 13.4466 17.2463 13.361L13.7463 9.761C13.6647 9.67709 13.5678 9.61052 13.4612 9.56511C13.3546 9.51969 13.2404 9.49632 13.125 9.49632C13.0096 9.49632 12.8954 9.51969 12.7888 9.56511C12.6822 9.61052 12.5853 9.67709 12.5037 9.761C12.4222 9.84491 12.3575 9.94454 12.3133 10.0542C12.2691 10.1638 12.2464 10.2813 12.2464 10.4C12.2464 10.5187 12.2691 10.6362 12.3133 10.7458C12.3575 10.8555 12.4222 10.9551 12.5037 11.039L14.5163 13.1H7.875C7.64294 13.1 7.42038 13.1948 7.25628 13.3636C7.09219 13.5324 7 13.7613 7 14ZM18.375 5H9.625C8.92881 5 8.26113 5.28446 7.76884 5.79081C7.27656 6.29716 7 6.98392 7 7.7V10.4C7 10.6387 7.09219 10.8676 7.25628 11.0364C7.42038 11.2052 7.64294 11.3 7.875 11.3C8.10706 11.3 8.32962 11.2052 8.49372 11.0364C8.65781 10.8676 8.75 10.6387 8.75 10.4V7.7C8.75 7.46131 8.84219 7.23239 9.00628 7.0636C9.17038 6.89482 9.39294 6.8 9.625 6.8H18.375C18.6071 6.8 18.8296 6.89482 18.9937 7.0636C19.1578 7.23239 19.25 7.46131 19.25 7.7V20.3C19.25 20.5387 19.1578 20.7676 18.9937 20.9364C18.8296 21.1052 18.6071 21.2 18.375 21.2H9.625C9.39294 21.2 9.17038 21.1052 9.00628 20.9364C8.84219 20.7676 8.75 20.5387 8.75 20.3V17.6C8.75 17.3613 8.65781 17.1324 8.49372 16.9636C8.32962 16.7948 8.10706 16.7 7.875 16.7C7.64294 16.7 7.42038 16.7948 7.25628 16.9636C7.09219 17.1324 7 17.3613 7 17.6V20.3C7 21.0161 7.27656 21.7028 7.76884 22.2092C8.26113 22.7155 8.92881 23 9.625 23H18.375C19.0712 23 19.7389 22.7155 20.2312 22.2092C20.7234 21.7028 21 21.0161 21 20.3V7.7C21 6.98392 20.7234 6.29716 20.2312 5.79081C19.7389 5.28446 19.0712 5 18.375 5Z" fill="white"/>
</svg>
