<svg width="28" height="28" viewBox="0 0 28 28" fill="none" xmlns="http://www.w3.org/2000/svg">
<path d="M10.8887 23.3334C9.74798 23.3334 8.77144 22.9272 7.9591 22.1149C7.14675 21.3026 6.74058 20.326 6.74058 19.1853V10.7075C6.13564 10.4828 5.6389 10.107 5.25036 9.58023C4.86181 9.05341 4.6672 8.45262 4.6665 7.77786C4.6665 6.91366 4.96897 6.17909 5.57391 5.57416C6.17885 4.96922 6.91342 4.66675 7.77761 4.66675C8.64181 4.66675 9.37638 4.96922 9.98132 5.57416C10.5863 6.17909 10.8887 6.91366 10.8887 7.77786C10.8887 8.45193 10.6945 9.05272 10.3059 9.58023C9.91737 10.1077 9.42028 10.4835 8.81465 10.7075V19.1853C8.81465 19.7556 9.01791 20.2441 9.42443 20.6506C9.83095 21.0571 10.319 21.26 10.8887 21.2593C11.4584 21.2586 11.9468 21.0557 12.3541 20.6506C12.7613 20.2455 12.9642 19.757 12.9628 19.1853V8.8149C12.9628 7.67416 13.369 6.69761 14.1813 5.88527C14.9937 5.07292 15.9702 4.66675 17.1109 4.66675C18.2517 4.66675 19.2282 5.07292 20.0406 5.88527C20.8529 6.69761 21.2591 7.67416 21.2591 8.8149V17.2927C21.864 17.5174 22.3611 17.8935 22.7504 18.421C23.1396 18.9485 23.3339 19.5489 23.3332 20.2223C23.3332 21.0865 23.0307 21.8211 22.4258 22.426C21.8208 23.0309 21.0863 23.3334 20.2221 23.3334C19.3579 23.3334 18.6233 23.0309 18.0184 22.426C17.4134 21.8211 17.1109 21.0865 17.1109 20.2223C17.1109 19.5482 17.3056 18.9433 17.6948 18.4075C18.084 17.8717 18.5808 17.5001 19.185 17.2927V8.8149C19.185 8.24453 18.9821 7.75643 18.5763 7.3506C18.1705 6.94477 17.682 6.74151 17.1109 6.74082C16.5399 6.74013 16.0518 6.94339 15.6467 7.3506C15.2415 7.75781 15.0383 8.24591 15.0369 8.8149V19.1853C15.0369 20.326 14.6307 21.3026 13.8184 22.1149C13.006 22.9272 12.0295 23.3334 10.8887 23.3334ZM7.77761 8.8149C8.07144 8.8149 8.31791 8.71534 8.51702 8.51623C8.71613 8.31712 8.81534 8.07099 8.81465 7.77786C8.81396 7.48472 8.7144 7.2386 8.51598 7.03949C8.31757 6.84038 8.07144 6.74082 7.77761 6.74082C7.48379 6.74082 7.23766 6.84038 7.03924 7.03949C6.84082 7.2386 6.74127 7.48472 6.74058 7.77786C6.73989 8.07099 6.83944 8.31746 7.03924 8.51727C7.23905 8.71707 7.48517 8.81628 7.77761 8.8149ZM20.2221 21.2593C20.5159 21.2593 20.7624 21.1598 20.9615 20.9607C21.1606 20.7616 21.2598 20.5154 21.2591 20.2223C21.2584 19.9292 21.1588 19.683 20.9604 19.4839C20.762 19.2848 20.5159 19.1853 20.2221 19.1853C19.9282 19.1853 19.6821 19.2848 19.4837 19.4839C19.2853 19.683 19.1857 19.9292 19.185 20.2223C19.1843 20.5154 19.2839 20.7619 19.4837 20.9617C19.6835 21.1615 19.9296 21.2607 20.2221 21.2593Z" fill="white"/>
</svg>
