<svg width="99" height="388" viewBox="0 0 99 388" fill="none" xmlns="http://www.w3.org/2000/svg">
<path d="M20.9999 72L31.5 387H1L12.4999 1H17.9999V10M20.9999 72L17.9999 10M20.9999 72L45.5 52M17.9999 10H45.5M45.5 10H97.5L45.5 52M45.5 10V52" stroke="white"/>
<path d="M20.5 342V354C20.5 356.209 18.7091 358 16.5 358C14.2909 358 12.5 356.209 12.5 354V342C12.5 339.791 14.2909 338 16.5 338C18.7091 338 20.5 339.791 20.5 342Z" stroke="white"/>
<path d="M20.5 310V322C20.5 324.209 18.7091 326 16.5 326C14.2909 326 12.5 324.209 12.5 322V310C12.5 307.791 14.2909 306 16.5 306C18.7091 306 20.5 307.791 20.5 310Z" stroke="white"/>
<path d="M20.5 278V290C20.5 292.209 18.7091 294 16.5 294C14.2909 294 12.5 292.209 12.5 290V278C12.5 275.791 14.2909 274 16.5 274C18.7091 274 20.5 275.791 20.5 278Z" stroke="white"/>
<path d="M19.5 252V261C19.5 262.657 18.1569 264 16.5 264C14.8431 264 13.5 262.657 13.5 261V252C13.5 250.343 14.8431 249 16.5 249C18.1569 249 19.5 250.343 19.5 252Z" stroke="white"/>
<path d="M19.5 229V238C19.5 239.657 18.1569 241 16.5 241C14.8431 241 13.5 239.657 13.5 238V229C13.5 227.343 14.8431 226 16.5 226C18.1569 226 19.5 227.343 19.5 229Z" stroke="white"/>
<path d="M19.5 206V215C19.5 216.657 18.1569 218 16.5 218C14.8431 218 13.5 216.657 13.5 215V206C13.5 204.343 14.8431 203 16.5 203C18.1569 203 19.5 204.343 19.5 206Z" stroke="white"/>
</svg>
